<svg width="218" height="63" viewBox="0 0 218 63" fill="none" xmlns="http://www.w3.org/2000/svg">
<path fill-rule="evenodd" clip-rule="evenodd" d="M48.6 -0.000164032H5.4C2.4228 -0.000164032 0 2.42264 0 5.39984V32.3998V35.9998V39.5998V43.1998V50.3998C0 53.377 2.4228 55.7998 5.4 55.7998H18V58.6546C18 61.0504 19.9494 62.9998 22.3452 62.9998C23.4882 62.9998 24.6078 62.5354 25.4178 61.7272L28.8 58.345L32.4 55.7998H36H39.6H48.6C51.5772 55.7998 54 53.377 54 50.3998V5.39984C54 2.42264 51.5772 -0.000164032 48.6 -0.000164032ZM48.6 52.1998C49.5918 52.1998 50.4 51.3934 50.4 50.3998V5.39984C50.4 4.40624 49.5918 3.59984 48.6 3.59984H5.4C4.4082 3.59984 3.6 4.40624 3.6 5.39984V50.3998C3.6 51.3934 4.4082 52.1998 5.4 52.1998H21.6V58.6546C21.6 59.263 22.4424 59.614 22.8744 59.1802L29.8548 52.1998H48.6Z" fill="#357A50"/>
<path d="M10.8 22.2673H14.4V25.8673H18V13.2673C18 10.2901 15.5772 7.86731 12.6 7.86731C9.62281 7.86731 7.20001 10.2901 7.20001 13.2673V25.8673H10.8V22.2673ZM12.6 11.4673C13.5918 11.4673 14.4 12.2737 14.4 13.2673V18.6673H10.8V13.2673C10.8 12.2737 11.6082 11.4673 12.6 11.4673Z" fill="#357A50"/>
<path d="M27.1291 7.1997L19.935 25.2015L23.2779 26.5375L30.4721 8.53566L27.1291 7.1997Z" fill="#357A50"/>
<path d="M41.4001 7.86731H37.8001V11.4673H32.4001V22.2673H37.8001V25.8673H41.4001V22.2673H46.8001V11.4673H41.4001V7.86731ZM36.0001 18.6673V15.0673H37.8001V18.6673H36.0001ZM43.2001 15.0673V18.6673H41.4001V15.0673H43.2001Z" fill="#357A50"/>
<path d="M10.8 29.467H7.20001V33.067H10.8V29.467Z" fill="#357A50"/>
<path d="M46.8001 29.467H14.4001V33.067H46.8001V29.467Z" fill="#357A50"/>
<path d="M46.8 36.6669H7.20001V40.2669H46.8V36.6669Z" fill="#357A50"/>
<path d="M46.8 43.8673H7.20001V47.4673H46.8V43.8673Z" fill="#357A50"/>
<path d="M208.407 57.7512V42.961H211.403V49.2257H211.322C211.322 47.1011 211.776 45.4941 212.684 44.4046C213.591 43.315 214.926 42.7703 216.688 42.7703H217.232V46.0661H216.197C214.926 46.0661 213.936 46.4111 213.228 47.1011C212.538 47.773 212.193 48.7536 212.193 50.0429V57.7512H208.407Z" fill="#357A50"/>
<path d="M197.03 58.2688C195.722 58.2688 194.569 58.0599 193.57 57.6423C192.572 57.2246 191.727 56.6617 191.037 55.9535C190.347 55.2272 189.82 54.41 189.457 53.5021C189.112 52.5942 188.94 51.6499 188.94 50.6693V50.0973C188.94 49.0804 189.121 48.118 189.485 47.2101C189.866 46.284 190.402 45.4669 191.092 44.7587C191.8 44.0323 192.653 43.4694 193.652 43.0699C194.651 42.6523 195.777 42.4434 197.03 42.4434C198.282 42.4434 199.408 42.6523 200.407 43.0699C201.406 43.4694 202.25 44.0323 202.94 44.7587C203.648 45.4669 204.184 46.284 204.547 47.2101C204.91 48.118 205.092 49.0804 205.092 50.0973V50.6693C205.092 51.6499 204.91 52.5942 204.547 53.5021C204.202 54.41 203.685 55.2272 202.995 55.9535C202.305 56.6617 201.46 57.2246 200.462 57.6423C199.463 58.0599 198.319 58.2688 197.03 58.2688ZM197.03 55.0274C197.956 55.0274 198.736 54.8277 199.372 54.4282C200.008 54.0105 200.489 53.4567 200.816 52.7667C201.142 52.0585 201.306 51.2595 201.306 50.3697C201.306 49.4618 201.133 48.6628 200.788 47.9728C200.461 47.2646 199.971 46.7107 199.317 46.3112C198.682 45.8936 197.919 45.6848 197.03 45.6848C196.14 45.6848 195.368 45.8936 194.714 46.3112C194.079 46.7107 193.588 47.2646 193.243 47.9728C192.898 48.6628 192.726 49.4618 192.726 50.3697C192.726 51.2595 192.889 52.0585 193.216 52.7667C193.561 53.4567 194.051 54.0105 194.687 54.4282C195.323 54.8277 196.103 55.0274 197.03 55.0274Z" fill="#357A50"/>
<path d="M184.698 57.9419C183.336 57.9419 182.21 57.7694 181.32 57.4244C180.449 57.0612 179.795 56.462 179.359 55.6267C178.923 54.7732 178.705 53.6292 178.705 52.1947L178.733 38.7935H182.274L182.246 52.4398C182.246 53.1662 182.437 53.7291 182.818 54.1286C183.218 54.5099 183.781 54.7006 184.507 54.7006H186.822V57.9419H184.698ZM176.363 45.7392V42.961H186.822V45.7392H176.363Z" fill="#357A50"/>
<path d="M171.218 57.7512V53.3659H170.592V48.4903C170.592 47.6368 170.383 47.0013 169.965 46.5836C169.547 46.166 168.903 45.9571 168.031 45.9571C167.577 45.9571 167.032 45.9662 166.397 45.9844C165.761 46.0025 165.117 46.0298 164.463 46.0661C163.827 46.0843 163.255 46.1115 162.747 46.1478V42.9337C163.165 42.8974 163.637 42.8611 164.163 42.8248C164.69 42.7884 165.226 42.7703 165.77 42.7703C166.333 42.7521 166.86 42.743 167.35 42.743C168.876 42.743 170.138 42.9428 171.136 43.3423C172.153 43.7418 172.916 44.3683 173.424 45.2217C173.951 46.0752 174.214 47.1919 174.214 48.572V57.7512H171.218ZM166.451 58.1326C165.38 58.1326 164.436 57.9419 163.619 57.5606C162.82 57.1792 162.193 56.6345 161.739 55.9263C161.303 55.2181 161.085 54.3646 161.085 53.3659C161.085 52.2764 161.349 51.3866 161.875 50.6966C162.42 50.0065 163.174 49.489 164.136 49.144C165.117 48.799 166.261 48.6265 167.568 48.6265H171V50.8872H167.514C166.642 50.8872 165.97 51.1051 165.498 51.541C165.044 51.9586 164.817 52.5034 164.817 53.1752C164.817 53.8471 165.044 54.3919 165.498 54.8095C165.97 55.2272 166.642 55.436 167.514 55.436C168.04 55.436 168.521 55.3452 168.957 55.1636C169.411 54.9639 169.783 54.637 170.074 54.183C170.383 53.7109 170.555 53.0754 170.592 52.2764L171.518 53.3387C171.427 54.3737 171.173 55.2453 170.755 55.9535C170.355 56.6617 169.793 57.2065 169.066 57.5878C168.358 57.951 167.486 58.1326 166.451 58.1326Z" fill="#357A50"/>
<path d="M150.978 57.7512V42.961H153.975V49.2257H153.893C153.893 47.1011 154.347 45.4941 155.255 44.4046C156.163 43.315 157.497 42.7703 159.259 42.7703H159.804V46.0661H158.768C157.497 46.0661 156.508 46.4111 155.8 47.1011C155.11 47.773 154.764 48.7536 154.764 50.0429V57.7512H150.978Z" fill="#357A50"/>
<path d="M140.706 58.2688C139.435 58.2688 138.319 58.0509 137.356 57.615C136.412 57.1792 135.622 56.5982 134.986 55.8718C134.369 55.1273 133.897 54.3011 133.57 53.3931C133.261 52.4852 133.107 51.5591 133.107 50.6149V50.0973C133.107 49.1168 133.261 48.1725 133.57 47.2646C133.897 46.3385 134.369 45.5213 134.986 44.8131C135.622 44.0868 136.403 43.5148 137.329 43.0971C138.255 42.6613 139.326 42.4434 140.543 42.4434C142.141 42.4434 143.476 42.7975 144.547 43.5057C145.637 44.1957 146.454 45.1128 146.998 46.2568C147.543 47.3826 147.816 48.5992 147.816 49.9067V51.2686H134.714V48.9533H145.446L144.275 50.0973C144.275 49.1531 144.138 48.345 143.866 47.6731C143.594 47.0013 143.176 46.4837 142.613 46.1206C142.068 45.7574 141.378 45.5758 140.543 45.5758C139.708 45.5758 139 45.7665 138.418 46.1478C137.837 46.5291 137.392 47.083 137.084 47.8093C136.793 48.5175 136.648 49.371 136.648 50.3697C136.648 51.2958 136.793 52.122 137.084 52.8484C137.374 53.5566 137.819 54.1195 138.418 54.5371C139.018 54.9366 139.78 55.1364 140.706 55.1364C141.633 55.1364 142.386 54.9548 142.967 54.5916C143.548 54.2103 143.921 53.7472 144.084 53.2025H147.57C147.353 54.2194 146.935 55.1091 146.317 55.8718C145.7 56.6345 144.91 57.2246 143.948 57.6423C143.004 58.0599 141.923 58.2688 140.706 58.2688Z" fill="#357A50"/>
<path d="M116.425 57.7512V42.961H119.422V49.3074H119.149C119.149 47.8003 119.349 46.5473 119.748 45.5486C120.148 44.5317 120.738 43.769 121.519 43.2606C122.318 42.7521 123.308 42.4979 124.488 42.4979H124.651C126.413 42.4979 127.747 43.0699 128.655 44.2139C129.563 45.3397 130.017 47.0285 130.017 49.2802V57.7512H126.231V48.9533C126.231 48.0454 125.968 47.31 125.441 46.7471C124.933 46.1841 124.225 45.9027 123.317 45.9027C122.391 45.9027 121.637 46.1932 121.056 46.7743C120.493 47.3372 120.211 48.0999 120.211 49.0623V57.7512H116.425Z" fill="#357A50"/>
<path d="M106.153 58.2688C104.882 58.2688 103.766 58.0509 102.803 57.615C101.859 57.1792 101.069 56.5982 100.433 55.8718C99.816 55.1273 99.3439 54.3011 99.0171 53.3931C98.7084 52.4852 98.554 51.5591 98.554 50.6149V50.0973C98.554 49.1168 98.7084 48.1725 99.0171 47.2646C99.3439 46.3385 99.816 45.5213 100.433 44.8131C101.069 44.0868 101.85 43.5148 102.776 43.0971C103.702 42.6613 104.773 42.4434 105.99 42.4434C107.588 42.4434 108.923 42.7975 109.994 43.5057C111.084 44.1957 111.901 45.1128 112.445 46.2568C112.99 47.3826 113.263 48.5992 113.263 49.9067V51.2686H100.161V48.9533H110.893L109.722 50.0973C109.722 49.1531 109.585 48.345 109.313 47.6731C109.041 47.0013 108.623 46.4837 108.06 46.1206C107.515 45.7574 106.825 45.5758 105.99 45.5758C105.155 45.5758 104.447 45.7665 103.865 46.1478C103.284 46.5291 102.839 47.083 102.531 47.8093C102.24 48.5175 102.095 49.371 102.095 50.3697C102.095 51.2958 102.24 52.122 102.531 52.8484C102.821 53.5566 103.266 54.1195 103.865 54.5371C104.465 54.9366 105.227 55.1364 106.153 55.1364C107.08 55.1364 107.833 54.9548 108.414 54.5916C108.995 54.2103 109.368 53.7472 109.531 53.2025H113.017C112.8 54.2194 112.382 55.1091 111.764 55.8718C111.147 56.6345 110.357 57.2246 109.395 57.6423C108.451 58.0599 107.37 58.2688 106.153 58.2688Z" fill="#357A50"/>
<path d="M86.4322 58.2688C84.7253 58.2688 83.2181 57.9873 81.9107 57.4244C80.6214 56.8433 79.5319 56.0716 78.6421 55.1091C77.7705 54.1286 77.1077 53.03 76.6537 51.8133C76.2179 50.5785 76 49.2983 76 47.9728V47.3735C76 46.1206 76.2179 44.8949 76.6537 43.6964C77.0895 42.4979 77.7251 41.4175 78.5604 40.455C79.4138 39.4926 80.458 38.73 81.6928 38.167C82.9457 37.586 84.3803 37.2954 85.9964 37.2954C87.7396 37.2954 89.2831 37.6223 90.6269 38.276C91.9706 38.9116 93.051 39.8104 93.8682 40.9726C94.6853 42.1166 95.1665 43.4512 95.3118 44.9766H91.4168C91.2897 44.1231 90.9719 43.3968 90.4634 42.7975C89.955 42.1801 89.3103 41.708 88.5295 41.3811C87.7669 41.0543 86.9225 40.8909 85.9964 40.8909C85.0703 40.8909 84.2259 41.0543 83.4632 41.3811C82.7187 41.708 82.0832 42.171 81.5566 42.7703C81.03 43.3695 80.6214 44.0868 80.3309 44.9221C80.0585 45.7574 79.9223 46.6835 79.9223 47.7004C79.9223 48.8081 80.0766 49.7977 80.3853 50.6693C80.694 51.5409 81.1298 52.2855 81.6928 52.9029C82.2557 53.5021 82.9366 53.9651 83.7356 54.292C84.5346 54.6007 85.4335 54.755 86.4322 54.755C87.7578 54.755 88.9199 54.4827 89.9187 53.9379C90.9174 53.375 91.6437 52.6486 92.0977 51.7589L91.4168 54.8912V49.7705H94.985V54.183C94.1315 55.4723 92.9693 56.4801 91.4985 57.2065C90.0276 57.9147 88.3389 58.2688 86.4322 58.2688ZM85.8057 50.5331V47.6459H96.6465V50.5331H85.8057Z" fill="#357A50"/>
<path d="M155.95 24.7512V20.3659H155.323V15.4903C155.323 14.6368 155.114 14.0013 154.697 13.5836C154.279 13.166 153.635 12.9571 152.763 12.9571C152.309 12.9571 151.764 12.9662 151.129 12.9844C150.493 13.0025 149.848 13.0298 149.195 13.0661C148.559 13.0843 147.987 13.1115 147.479 13.1478V9.93372C147.896 9.8974 148.369 9.86108 148.895 9.82476C149.422 9.78845 149.957 9.77029 150.502 9.77029C151.065 9.75213 151.592 9.74305 152.082 9.74305C153.607 9.74305 154.869 9.9428 155.868 10.3423C156.885 10.7418 157.648 11.3683 158.156 12.2217C158.683 13.0752 158.946 14.1919 158.946 15.572V24.7512H155.95ZM151.183 25.1326C150.112 25.1326 149.167 24.9419 148.35 24.5606C147.551 24.1792 146.925 23.6345 146.471 22.9263C146.035 22.2181 145.817 21.3646 145.817 20.3659C145.817 19.2764 146.081 18.3866 146.607 17.6966C147.152 17.0065 147.905 16.489 148.868 16.144C149.848 15.799 150.992 15.6265 152.3 15.6265H155.732V17.8872H152.245C151.374 17.8872 150.702 18.1051 150.23 18.541C149.776 18.9586 149.549 19.5034 149.549 20.1752C149.549 20.8471 149.776 21.3919 150.23 21.8095C150.702 22.2272 151.374 22.436 152.245 22.436C152.772 22.436 153.253 22.3452 153.689 22.1636C154.143 21.9639 154.515 21.637 154.806 21.183C155.114 20.7109 155.287 20.0754 155.323 19.2764L156.249 20.3387C156.159 21.3737 155.904 22.2453 155.487 22.9535C155.087 23.6617 154.524 24.2065 153.798 24.5878C153.09 24.951 152.218 25.1326 151.183 25.1326Z" fill="#357A50"/>
<path d="M138.88 24.7512V4.86743H142.666V24.7512H138.88ZM137.028 7.70019V4.86743H142.666V7.70019H137.028Z" fill="#357A50"/>
<path d="M123.477 24.8874V21.7823H128.462C129.37 21.7823 130.06 21.5371 130.532 21.0469C131.004 20.5384 131.24 19.8484 131.24 18.9768C131.24 18.1051 131.004 17.4333 130.532 16.9611C130.06 16.4709 129.37 16.2257 128.462 16.2257H123.477V13.856H128.19C129.515 13.856 130.696 14.0194 131.731 14.3463C132.784 14.655 133.601 15.1816 134.182 15.9261C134.781 16.6706 135.081 17.6693 135.081 18.9223V19.3036C135.081 20.4839 134.818 21.4917 134.291 22.327C133.783 23.1442 133.011 23.7797 131.976 24.2337C130.959 24.6695 129.697 24.8874 128.19 24.8874H123.477ZM120.236 24.8874V4.73124H124.022V24.8874H120.236ZM123.477 15.5992V13.2295H127.727C128.653 13.2295 129.334 12.9844 129.769 12.4941C130.205 12.0038 130.423 11.3501 130.423 10.533C130.423 9.71581 130.205 9.0621 129.769 8.57181C129.334 8.08152 128.653 7.83638 127.727 7.83638H123.477V4.73124H127.373C129.624 4.73124 131.331 5.20337 132.493 6.14762C133.674 7.09187 134.264 8.4447 134.264 10.2061V10.5874C134.264 11.8222 133.964 12.8119 133.365 13.5564C132.784 14.2827 131.976 14.8093 130.941 15.1362C129.906 15.4449 128.716 15.5992 127.373 15.5992H123.477Z" fill="#357A50"/>
<path d="M112.885 24.7512V20.3659H112.258V15.4903C112.258 14.6368 112.05 14.0013 111.632 13.5836C111.214 13.166 110.57 12.9571 109.698 12.9571C109.244 12.9571 108.699 12.9662 108.064 12.9844C107.428 13.0025 106.784 13.0298 106.13 13.0661C105.494 13.0843 104.922 13.1115 104.414 13.1478V9.93372C104.831 9.8974 105.304 9.86108 105.83 9.82476C106.357 9.78845 106.892 9.77029 107.437 9.77029C108 9.75213 108.527 9.74305 109.017 9.74305C110.542 9.74305 111.804 9.9428 112.803 10.3423C113.82 10.7418 114.583 11.3683 115.091 12.2217C115.618 13.0752 115.881 14.1919 115.881 15.572V24.7512H112.885ZM108.118 25.1326C107.047 25.1326 106.103 24.9419 105.285 24.5606C104.486 24.1792 103.86 23.6345 103.406 22.9263C102.97 22.2181 102.752 21.3646 102.752 20.3659C102.752 19.2764 103.016 18.3866 103.542 17.6966C104.087 17.0065 104.841 16.489 105.803 16.144C106.784 15.799 107.928 15.6265 109.235 15.6265H112.667V17.8872H109.18C108.309 17.8872 107.637 18.1051 107.165 18.541C106.711 18.9586 106.484 19.5034 106.484 20.1752C106.484 20.8471 106.711 21.3919 107.165 21.8095C107.637 22.2272 108.309 22.436 109.18 22.436C109.707 22.436 110.188 22.3452 110.624 22.1636C111.078 21.9639 111.45 21.637 111.741 21.183C112.05 20.7109 112.222 20.0754 112.258 19.2764L113.184 20.3387C113.094 21.3737 112.839 22.2453 112.422 22.9535C112.022 23.6617 111.459 24.2065 110.733 24.5878C110.025 24.951 109.153 25.1326 108.118 25.1326Z" fill="#357A50"/>
<path d="M95.8151 24.7512V4.86743H99.6012V24.7512H95.8151ZM93.9629 7.70019V4.86743H99.6012V7.70019H93.9629Z" fill="#357A50"/>
<path d="M80.4126 24.8874V21.7823H85.3972C86.3051 21.7823 86.9951 21.5371 87.4673 21.0469C87.9394 20.5384 88.1755 19.8484 88.1755 18.9768C88.1755 18.1051 87.9394 17.4333 87.4673 16.9611C86.9951 16.4709 86.3051 16.2257 85.3972 16.2257H80.4126V13.856H85.1248C86.4504 13.856 87.6307 14.0194 88.6657 14.3463C89.7189 14.655 90.5361 15.1816 91.1172 15.9261C91.7164 16.6706 92.016 17.6693 92.016 18.9223V19.3036C92.016 20.4839 91.7527 21.4917 91.2261 22.327C90.7177 23.1442 89.9459 23.7797 88.9109 24.2337C87.894 24.6695 86.632 24.8874 85.1248 24.8874H80.4126ZM77.1713 24.8874V4.73124H80.9574V24.8874H77.1713ZM80.4126 15.5992V13.2295H84.6617C85.5878 13.2295 86.2688 12.9844 86.7046 12.4941C87.1404 12.0038 87.3583 11.3501 87.3583 10.533C87.3583 9.71581 87.1404 9.0621 86.7046 8.57181C86.2688 8.08152 85.5878 7.83638 84.6617 7.83638H80.4126V4.73124H84.3076C86.5593 4.73124 88.2662 5.20337 89.4284 6.14762C90.6087 7.09187 91.1989 8.4447 91.1989 10.2061V10.5874C91.1989 11.8222 90.8993 12.8119 90.3 13.5564C89.7189 14.2827 88.9109 14.8093 87.8758 15.1362C86.8408 15.4449 85.6514 15.5992 84.3076 15.5992H80.4126Z" fill="#357A50"/>
</svg>
